<svg width="100" height="100" viewBox="0 0 100 100" fill="none" xmlns="http://www.w3.org/2000/svg">
  <path d="M50 10.42L56.47 12.29C57.54 12.64 58.68 11.97 58.9 10.87L60 5C68.89 6.92 76.63 11.97 82.11 19.03L77.11 22.89C76.21 23.52 76.02 24.83 76.71 25.66L80 30C85.53 35.63 89 43.11 89 51.3L83.42 51.82C82.31 51.9 81.5 52.87 81.65 53.97L82.5 60C79.39 68.31 73.77 75.05 66.32 79.21L62.89 74.45C62.22 73.55 60.9 73.34 60.05 74.05L55.53 77.5C49.97 79.39 43.84 79.89 38.03 78.74L37.03 73.24C36.84 72.13 35.83 71.4 34.72 71.63L29.21 73.03C21.58 69.61 15.53 63.53 12.11 55.92L16.84 52.5C17.76 51.87 17.95 50.55 17.24 49.71L13.95 45.39C12.65 37.37 13.95 29.11 17.76 22.11L23.03 23.18C24.14 23.42 25.21 22.68 25.34 21.55L26.05 16.05C33.03 12.13 41.05 10.21 49 10.42M50 0C40.73 0 31.84 2.39 24.16 6.45L23.29 13.53C20.97 12.95 18.55 15.53 19.03 17.89L18.34 19.37C13.82 27.18 11.97 36.13 12.89 45L17.11 50.42C14.92 52.26 15.29 55.97 17.76 57.37L15.92 61.03C19.74 70.26 26.71 77.76 35.55 82.11L42.82 80.26C46.05 80.97 45.32 80.97 48.55 81.32L56.05 84.21C64.87 81.64 72.44 76.18 77.71 68.84L76.58 60.92C78.68 59.05 78.47 55.5 76.05 54L78.05 51.97C78.55 43.82 76.21 35.58 71.32 28.95L67.03 23.29C69.05 21.32 68.74 17.97 66.18 16.5L66.89 14.74C59.47 8.16 49.99 4.08 40 4.74L37.89 12.63C35.88 13.69 36.16 16.71 38.36 17.41L41.97 18.34C43.35 18.31 44.73 18.81 44.76 20.21L50 20.42" fill="url(#gradient)"/>
  <defs>
    <linearGradient id="gradient" x1="10" y1="10" x2="90" y2="90" gradientUnits="userSpaceOnUse">
      <stop offset="0" stop-color="#9C27B0"/>
      <stop offset="0.5" stop-color="#3F51B5"/>
      <stop offset="1" stop-color="#03A9F4"/>
    </linearGradient>
  </defs>
</svg>